PathFileType	4	(X/Y/Z)	C:/Users/opensim2020/Desktop/walking_exp_matlab/subject03_walking08_straight_01.trc																																																																																																																																																							
DataRate	CameraRate	NumFrames	NumMarkers	Units	OrigDataRate	OrigDataStartFrame	OrigNumFrames																																																																																																																																																			
100	100	4	51	mm	100	877	451																																																																																																																																																			
Frame#	Time	LFHD			RFHD			LBHD			RBHD			C7			T10			CLAV			STRN			RBAK			LSHO			LUPA			LELB			LFRM			LWRA			LWRB			LFIN			RSHO			RUPA			RELB			RFRM			RWRA			RWRB			RFIN			LASI			RASI			LPSI			RPSI			LTHI			LKNE			LTIB			LANK			LHEE			LTOE			RTHI			RKNE			RTIB			RANK			RHEE			RTOE			*39			*40			*41			*42			*43			*44			*45			*46			*47			*48			*49			*50		
		X1	Y1	Z1	X2	Y2	Z2	X3	Y3	Z3	X4	Y4	Z4	X5	Y5	Z5	X6	Y6	Z6	X7	Y7	Z7	X8	Y8	Z8	X9	Y9	Z9	X10	Y10	Z10	X11	Y11	Z11	X12	Y12	Z12	X13	Y13	Z13	X14	Y14	Z14	X15	Y15	Z15	X16	Y16	Z16	X17	Y17	Z17	X18	Y18	Z18	X19	Y19	Z19	X20	Y20	Z20	X21	Y21	Z21	X22	Y22	Z22	X23	Y23	Z23	X24	Y24	Z24	X25	Y25	Z25	X26	Y26	Z26	X27	Y27	Z27	X28	Y28	Z28	X29	Y29	Z29	X30	Y30	Z30	X31	Y31	Z31	X32	Y32	Z32	X33	Y33	Z33	X34	Y34	Z34	X35	Y35	Z35	X36	Y36	Z36	X37	Y37	Z37	X38	Y38	Z38	X39	Y39	Z39	X40	Y40	Z40	X41	Y41	Z41	X42	Y42	Z42	X43	Y43	Z43	X44	Y44	Z44	X45	Y45	Z45	X46	Y46	Z46	X47	Y47	Z47	X48	Y48	Z48	X49	Y49	Z49	X50	Y50	Z50	X51	Y51	Z51
																																																																																																																																																										
395	3.94	1125.06067	1602.60461	-1076.46692	1104.39917	1611.28918	-945.54413	991.88971	1584.14343	-1092.16479	976.54895	1591.57312	-962.67682	930.68231	1419.90723	-1035.6665	898.39392	1102.14001	-1038.99219	1049.40112	1340.28735	-1023.12585	1093.72668	1176.65076	-1025.9978	866.61694	1240.25781	-944.56683	1019.78455	1376.61914	-1180.72974	1047.74683	1186.46838	-1260.07385	1080.42712	1069.57593	-1278.48865	1136.55969	952.00555	-1280.25171	1181.07129	841.0968	-1253.17444	1162.32043	843.61505	-1305.69739	1198.53101	767.61182	-1299.17017	989.50116	1363.77539	-867.42682	989.6781	1140.0918	-795.69177	1007.65918	1029.32495	-781.43896	1030.60022	894.39026	-778.57452	1068.61621	801.2287	-811.55267	1033.81543	794.42444	-770.86255	1062.28711	726.29675	-775.87317	1072.45972	941.37732	-1150.49573	1063.24683	940.42236	-911.14813	908.30951	965.28619	-1105.56592	903.65118	966.80115	-956.66528	1009.20886	637.62408	-1182.95618	1007.28961	460.35239	-1138.14233	948.70184	273.4346	-1138.125	915.83582	66.6878	-1093.27808	873.47168	32.70456	-1059.11707	1067.4812	29.44432	-1071.07227	1072.33301	649.78003	-863.51111	1138.2002	481.75726	-891.10193	1063.34363	303.96802	-888.91711	992.94104	99.18842	-932.60681	944.83301	73.85517	-986.40155	1119.29919	38.70845	-943.61975	1049.47412	1679.12915	-1039.08569	NaN	NaN	NaN	NaN	NaN	NaN	NaN	NaN	NaN	NaN	NaN	NaN	NaN	NaN	NaN	NaN	NaN	NaN	NaN	NaN	NaN	NaN	NaN	NaN	NaN	NaN	NaN	NaN	NaN	NaN	NaN	NaN	NaN
396	3.95	1132.07251	1601.93909	-1075.24207	1111.1665	1610.34827	-944.42346	998.99017	1584.00037	-1091.43945	983.09503	1590.9613	-962.02423	937.41107	1419.33679	-1035.22632	904.85901	1101.66931	-1039.10608	1055.85718	1339.8136	-1022.89893	1100.21338	1176.16846	-1026.13794	872.89825	1239.5083	-945.08411	1026.61938	1376.526	-1180.46252	1056.10266	1187.07532	-1260.19885	1089.97351	1070.52222	-1278.74622	1148.07385	953.98358	-1280.46118	1194.75049	844.10492	-1253.2677	1175.81311	845.97748	-1305.59802	1213.40613	770.69556	-1298.78809	995.42169	1362.93066	-867.29327	994.99542	1139.35864	-795.32892	1012.64398	1028.49817	-780.8584	1034.71545	893.43304	-777.70428	1072.08875	800.03149	-810.66083	1037.34009	793.44684	-769.62213	1065.21069	724.91235	-774.96655	1078.4762	940.70093	-1150.73254	1069.9729	940.09888	-911.6424	914.60248	964.75476	-1105.58789	910.23108	966.4234	-956.68402	1014.11646	637.20038	-1182.78015	1010.43719	459.9693	-1138.23682	950.4613	273.42825	-1138.14331	916.00397	66.92105	-1093.2428	873.06201	33.23333	-1058.94519	1067.48486	29.40312	-1071.09131	1080.38708	649.6618	-863.59406	1146.40723	481.87885	-892.3653	1078.53931	301.7124	-890.12122	1017.29968	94.15413	-934.43445	970.43933	66.81339	-988.36542	1146.17517	39.06576	-944.89832	1056.87598	1678.69299	-1038.09631	NaN	NaN	NaN	NaN	NaN	NaN	NaN	NaN	NaN	NaN	NaN	NaN	NaN	NaN	NaN	NaN	NaN	NaN	NaN	NaN	NaN	NaN	NaN	NaN	NaN	NaN	NaN	NaN	NaN	NaN	NaN	NaN	NaN
397	3.96	1139.24133	1601.46887	-1074.13	1117.93286	1609.33325	-943.22034	1006.08319	1583.81543	-1090.66125	989.92297	1590.34204	-961.20178	943.86163	1419.08618	-1035.40955	911.30988	1101.19897	-1039.10815	1062.35425	1339.23865	-1022.61169	1106.73535	1175.66492	-1026.31982	879.17285	1238.77722	-945.55499	1033.43335	1376.32874	-1180.07068	1064.29541	1187.62	-1260.24194	1099.49353	1071.52185	-1278.98523	1159.36877	955.92444	-1280.47327	1208.10559	847.05707	-1252.95776	1188.99658	848.33435	-1305.24524	1228.08447	773.83118	-1298.10913	1001.43475	1362.02112	-867.15839	1000.35834	1138.54529	-794.97253	1017.72894	1027.69092	-780.3548	1038.99878	892.48157	-777.03638	1075.70691	798.75598	-809.79205	1041.08325	792.39484	-768.72723	1068.26123	723.53955	-774.18921	1085.60364	940.73962	-1150.90149	1076.70056	939.63654	-912.06915	920.89673	964.25537	-1105.48633	916.81073	965.91187	-956.64874	1018.95709	636.71857	-1182.67834	1013.49231	459.51263	-1138.245	952.12036	273.40768	-1138.10156	916.15906	67.19552	-1093.18103	873.0473	33.51939	-1058.89697	1067.56653	29.42777	-1071.09387	1087.2345	649.23474	-863.64563	1154.80835	482.05582	-893.33411	1093.47424	299.5578	-891.35321	1041.52075	89.56463	-935.96991	995.84448	60.61044	-990.15125	1172.4895	39.47451	-946.23883	1063.86731	1678.13855	-1036.56726	NaN	NaN	NaN	NaN	NaN	NaN	NaN	NaN	NaN	NaN	NaN	NaN	NaN	NaN	NaN	NaN	NaN	NaN	NaN	NaN	NaN	NaN	NaN	NaN	NaN	NaN	NaN	NaN	NaN	NaN	NaN	NaN	NaN
398	3.97	1146.29907	1600.9071	-1072.86719	1124.60791	1608.29053	-941.97327	1013.13007	1583.54102	-1089.84277	996.56158	1589.57983	-960.41901	950.53662	1418.57825	-1035.16174	917.83124	1100.67334	-1039.01038	1068.49231	1338.53333	-1022.10321	1113.29712	1175.05334	-1026.4397	885.50812	1238.04749	-945.95569	1040.23035	1376.21155	-1179.79858	1072.2384	1188.02466	-1260.18799	1108.6676	1072.29211	-1279.12781	1170.41101	957.77734	-1280.34058	1221.17175	849.99463	-1252.28296	1201.86084	850.55902	-1304.62964	1242.52515	776.92725	-1297.17883	1007.48828	1361.0802	-866.94037	1005.69946	1137.70081	-794.65503	1022.87897	1026.76001	-779.89386	1043.31189	891.44482	-776.37445	1079.61511	797.55878	-808.96069	1044.6731	791.33942	-767.60071	1071.50122	722.20453	-773.69153	1090.54578	939.15735	-1151.89429	1083.41479	939.05975	-912.37823	927.20386	963.62805	-1105.44104	923.41058	965.30212	-956.51074	1023.75494	636.25574	-1182.44922	1016.50952	459.15564	-1138.21643	953.73779	273.4057	-1138.06653	916.26062	67.3685	-1093.15894	873.05389	33.81239	-1058.83679	1067.97961	29.90765	-1071.43152	1093.90747	648.67133	-863.66949	1162.74792	481.96826	-894.37592	1108.28308	297.71399	-892.45398	1065.44092	85.41991	-937.59216	1021.21661	54.83145	-992.22363	1198.28784	40.11759	-947.39325	1070.96667	1677.60278	-1035.24622	NaN	NaN	NaN	NaN	NaN	NaN	NaN	NaN	NaN	NaN	NaN	NaN	NaN	NaN	NaN	NaN	NaN	NaN	NaN	NaN	NaN	NaN	NaN	NaN	NaN	NaN	NaN	NaN	NaN	NaN	NaN	NaN	NaN
